<svg xmlns="http://www.w3.org/2000/svg" viewBox="0 0 520 400" fill="none">
<defs><pattern id="g" width="26" height="26" patternUnits="userSpaceOnUse"><path d="M26 0H0V26" stroke="rgba(255,255,255,0.045)" stroke-width="1" fill="none"/></pattern></defs>
<rect x="6" y="6" width="508" height="388" rx="12" fill="rgba(10,20,34,0.55)" stroke="rgba(255,255,255,0.14)"/>
<rect x="6" y="6" width="508" height="388" rx="12" fill="url(#g)"/>
<path d="M22 34v-12h12M498 34v-12h-12M22 366v12h12M498 366v12h-12" stroke="rgba(255,255,255,0.35)" stroke-width="1.4"/>
<text x="30" y="48" font-family="IBM Plex Mono,Consolas,monospace" font-size="10.5" fill="#5c7188" letter-spacing="2" text-anchor="start">POWDER COATING — LINE 2</text>
<polygon points="120.0,176.0 330.0,176.0 378.5,148.0 168.5,148.0" fill="rgba(211,172,103,0.30)" stroke="#dfe7f0" stroke-width="1.8" stroke-linejoin="round" /><polygon points="330.0,176.0 330.0,318.0 378.5,290.0 378.5,148.0" fill="rgba(6,12,22,0.55)" stroke="#dfe7f0" stroke-width="1.8" stroke-linejoin="round" /><polygon points="120.0,176.0 330.0,176.0 330.0,318.0 120.0,318.0" fill="rgba(226,235,245,0.07)" stroke="#dfe7f0" stroke-width="1.8" stroke-linejoin="round" /><polygon points="228.0,176.0 330.0,176.0 330.0,318.0 228.0,318.0" fill="rgba(211,172,103,0.38)" stroke="none"/><polygon points="228.0,176.0 330.0,176.0 378.5,148.0 276.5,148.0" fill="rgba(211,172,103,0.42)" stroke="none"/><path d="M228 176v142" stroke="#d3ac67" stroke-width="1.6" stroke-dasharray="7 5"/><path d="M140 206h64M140 224h64M140 242h64M140 260h64" stroke="rgba(223,231,240,0.55)" stroke-width="3" opacity="0.5"/><path d="M225 176V120a14 14 0 0 1 14 -14" stroke="rgba(223,231,240,0.55)" stroke-width="2" fill="none"/><g transform="translate(430,150) rotate(18)"><rect x="-6" y="-10" width="44" height="20" rx="5" fill="rgba(226,235,245,0.12)" stroke="#dfe7f0" stroke-width="1.5"/><rect x="26" y="8" width="14" height="30" rx="4" fill="rgba(226,235,245,0.12)" stroke="#dfe7f0" stroke-width="1.5"/><rect x="-14" y="-6" width="10" height="12" fill="rgba(226,235,245,0.2)" stroke="#dfe7f0" stroke-width="1.4"/></g><path d="M414 158 L330 196 L338 246 Z" fill="rgba(211,172,103,0.14)"/><circle cx="398" cy="172" r="1.8" fill="#d3ac67"/><circle cx="382" cy="184" r="1.8" fill="#d3ac67"/><circle cx="366" cy="196" r="1.8" fill="#d3ac67"/><circle cx="352" cy="210" r="1.8" fill="#d3ac67"/><circle cx="386" cy="206" r="1.8" fill="#d3ac67"/><circle cx="370" cy="222" r="1.8" fill="#d3ac67"/><circle cx="356" cy="232" r="1.8" fill="#d3ac67"/><circle cx="398" cy="196" r="1.8" fill="#d3ac67"/><path d="M160 290L108 344" stroke="#9fb0c2" stroke-width="1"/><circle cx="160" cy="290" r="2" fill="#9fb0c2"/><text x="60" y="358" font-family="IBM Plex Mono,Consolas,monospace" font-size="9.5" fill="#c3cfdd" letter-spacing="1.5" text-anchor="start">RAW SUBSTRATE</text><path d="M300 230L356 300" stroke="#9fb0c2" stroke-width="1"/><circle cx="300" cy="230" r="2" fill="#9fb0c2"/><text x="300" y="316" font-family="IBM Plex Mono,Consolas,monospace" font-size="9.5" fill="#d3ac67" letter-spacing="1" text-anchor="start">COATED — RAL / AAMA SPEC</text><g transform="translate(396,340)"><rect width="22" height="22" rx="4" fill="#d3ac67"/><rect x="28" width="22" height="22" rx="4" fill="#20303f" stroke="rgba(223,231,240,0.55)"/><rect x="56" width="22" height="22" rx="4" fill="#8d98a5"/></g>
</svg>
