<svg xmlns="http://www.w3.org/2000/svg" viewBox="0 0 64 64" fill="none"><defs>
<linearGradient id="nG" x1="0" y1="0" x2="0" y2="1"><stop offset="0" stop-color="#2f5178"/><stop offset="1" stop-color="#16324f"/></linearGradient>
<linearGradient id="gG" x1="0" y1="0" x2="0" y2="1"><stop offset="0" stop-color="#e0bc7e"/><stop offset="1" stop-color="#b08a41"/></linearGradient>
<linearGradient id="tG" x1="0" y1="0" x2="0" y2="1"><stop offset="0" stop-color="rgba(224,188,126,0.75)"/><stop offset="1" stop-color="rgba(176,138,65,0.55)"/></linearGradient>
</defs><polygon points="10.0,18.0 40.0,18.0 45.2,15.0 15.2,15.0" fill="url(#tG)" stroke="rgba(223,231,240,0.9)" stroke-width="1.5" stroke-linejoin="round" /><polygon points="40.0,18.0 40.0,52.0 45.2,49.0 45.2,15.0" fill="#0b1a2c" stroke="rgba(223,231,240,0.9)" stroke-width="1.5" stroke-linejoin="round" /><polygon points="10.0,18.0 40.0,18.0 40.0,52.0 10.0,52.0" fill="url(#nG)" stroke="rgba(223,231,240,0.9)" stroke-width="1.5" stroke-linejoin="round" /><polygon points="26,18 40,18 45.196,15 31.195999999999998,15" fill="rgba(224,188,126,0.85)"/><rect x="26" y="18" width="14" height="34" fill="url(#gG)" opacity="0.85"/><path d="M26 18v34" stroke="#f0d6a0" stroke-width="1.3" stroke-dasharray="3.5 2.5"/><path d="M14 26h8M14 32h8M14 38h8" stroke="rgba(223,231,240,0.55)" stroke-width="1.8"/><g transform="translate(50,10) rotate(20)"><rect x="-5" y="-4" width="13" height="8" rx="2.5" fill="url(#nG)" stroke="rgba(223,231,240,0.9)" stroke-width="1.2"/><rect x="6" y="1" width="4.5" height="9" rx="1.8" fill="url(#nG)" stroke="rgba(223,231,240,0.9)" stroke-width="1.2"/></g><circle cx="46" cy="24" r="1.4" fill="#d3ac67"/><circle cx="43" cy="30" r="1.2" fill="#d3ac67"/><circle cx="47.5" cy="33" r="1" fill="#d3ac67"/></svg>
