<svg xmlns="http://www.w3.org/2000/svg" viewBox="0 0 64 64" fill="none"><defs>
<linearGradient id="nG" x1="0" y1="0" x2="0" y2="1"><stop offset="0" stop-color="#2f5178"/><stop offset="1" stop-color="#16324f"/></linearGradient>
<linearGradient id="gG" x1="0" y1="0" x2="0" y2="1"><stop offset="0" stop-color="#e0bc7e"/><stop offset="1" stop-color="#b08a41"/></linearGradient>
<linearGradient id="tG" x1="0" y1="0" x2="0" y2="1"><stop offset="0" stop-color="rgba(224,188,126,0.75)"/><stop offset="1" stop-color="rgba(176,138,65,0.55)"/></linearGradient>
</defs><polygon points="10.0,12.0 54.0,12.0 59.2,9.0 15.2,9.0" fill="url(#tG)" stroke="rgba(223,231,240,0.9)" stroke-width="1.5" stroke-linejoin="round" /><polygon points="54.0,12.0 54.0,52.0 59.2,49.0 59.2,9.0" fill="#0b1a2c" stroke="rgba(223,231,240,0.9)" stroke-width="1.5" stroke-linejoin="round" /><polygon points="10.0,12.0 54.0,12.0 54.0,52.0 10.0,52.0" fill="url(#nG)" stroke="rgba(223,231,240,0.9)" stroke-width="1.5" stroke-linejoin="round" /><circle cx="32" cy="32" r="15" fill="#0b1a2c" stroke="rgba(223,231,240,0.9)" stroke-width="1.4"/><g fill="url(#gG)"><path d="M32 32c-2-6 0-11 4-13 1 5 0 9-1 12z"/><path d="M32 32c6-1 10 3 11 8-5 0-9-2-11-5z"/><path d="M32 32c-4 5-9 5-14 3 3-4 7-6 11-6z"/></g><circle cx="32" cy="32" r="3.4" fill="url(#gG)" stroke="#8a6a30" stroke-width="1"/><circle cx="15" cy="17" r="1.3" fill="rgba(223,231,240,0.5)"/><circle cx="49" cy="47" r="1.3" fill="rgba(223,231,240,0.5)"/></svg>
